<?xml version="1.0" standalone="no"?><!DOCTYPE svg PUBLIC "-//W3C//DTD SVG 1.1//EN" "http://www.w3.org/Graphics/SVG/1.1/DTD/svg11.dtd"><svg t="1536289964385" class="icon" style="" viewBox="0 0 1024 1024" version="1.1" xmlns="http://www.w3.org/2000/svg" p-id="2991" xmlns:xlink="http://www.w3.org/1999/xlink" width="200" height="200"><defs><style type="text/css"></style></defs><path d="M512 512m-512 0a512 512 0 1 0 1024 0 512 512 0 1 0-1024 0Z" fill="#59DC62" p-id="2992"></path><path d="M623.435294 262.023529H393.035294c-31.623529 0-58.729412 27.105882-58.729412 58.729412v385.505883c0 31.623529 27.105882 58.729412 58.729412 58.729411h228.894118c31.623529 0 58.729412-27.105882 58.729412-58.729411V320.752941c0-33.129412-25.6-58.729412-57.22353-58.729412z m-230.4 30.117647h228.894118c15.058824 0 28.611765 12.047059 28.611764 28.611765V617.411765h-286.117647V320.752941c0-16.564706 13.552941-28.611765 28.611765-28.611765z m230.4 442.729412H393.035294c-15.058824 0-28.611765-12.047059-28.611765-28.611764V647.529412h287.62353v58.729412c0 15.058824-13.552941 28.611765-28.611765 28.611764z" fill="#FFFAFA" p-id="2993"></path><path d="M528.564706 674.635294h-40.658824c-7.529412 0-15.058824 7.529412-15.058823 15.058824s7.529412 15.058824 15.058823 15.058823h40.658824c7.529412 0 15.058824-7.529412 15.058823-15.058823s-6.023529-15.058824-15.058823-15.058824zM435.2 340.329412c0 6.023529 3.011765 10.541176 7.529412 13.552941s10.541176 3.011765 16.564706 0 7.529412-7.529412 7.529411-13.552941-3.011765-10.541176-7.529411-13.552941-10.541176-3.011765-16.564706 0c-4.517647 3.011765-7.529412 9.035294-7.529412 13.552941z" fill="#FFFFFF" p-id="2994"></path><path d="M492.423529 340.329412c0 6.023529 3.011765 10.541176 7.529412 13.552941s10.541176 3.011765 16.564706 0 7.529412-7.529412 7.529412-13.552941-3.011765-10.541176-7.529412-13.552941-10.541176-3.011765-16.564706 0-7.529412 9.035294-7.529412 13.552941z" fill="#FFFCFC" p-id="2995"></path><path d="M564.705882 356.894118c9.035294 0 16.564706-7.529412 16.564706-16.564706s-7.529412-16.564706-16.564706-16.564706-16.564706 7.529412-16.564706 16.564706 7.529412 16.564706 16.564706 16.564706z" fill="#FFFFFF" p-id="2996"></path></svg>