<svg height="200" viewBox="0 0 1024 1024" width="200" xmlns="http://www.w3.org/2000/svg"><path d="m992 512.096c0-5.76-.992-10.592-1.28-11.136-.192-2.88-1.152-8.064-2.08-10.816-.256-.672-.544-1.376-.832-2.08-.48-1.568-1.024-3.104-1.6-4.32-88.544-193.632-279.104-323.744-474.208-323.744-195.072 0-385.632 130.016-473.76 322.592-1.056 2.112-1.792 4.096-2.272 5.856-.224.544-.448 1.088-.64 1.6-1.76 5.088-1.792 8.64-1.632 7.744-.832 3.744-1.568 11.168-1.568 11.168-.224 2.272-.224 4.032.032 6.304 0 0 .736 6.464 1.088 7.808.128 1.824.576 4.512 1.12 6.976h-.032c.448 2.08 1.12 4.096 1.984 6.08.48 1.536.992 2.976 1.472 4.032 88.64 193.696 279.2 323.84 474.208 323.84 195.136 0 385.696-130.048 473.216-321.696 1.376-2.496 2.24-4.832 2.848-6.912.256-.608.48-1.184.672-1.728 1.536-4.48 1.856-8.32 1.728-8.32 0 0 0 0-.032.032.608-3.104 1.568-7.744 1.568-13.28zm-64.672 2.368c-.032.16-.096.32-.128.48-.128.416-.288.864-.416 1.376-78.752 169.76-245.088 283.68-414.784 283.68-169.28 0-335.328-113.568-414.88-283.968-.16-.576-.32-1.152-.512-1.696-.064-.544-.16-1.024-.192-1.344-.064-.352-.128-.8-.192-1.248l.032-.416c.16-.704.288-1.44.384-2.208.128-.416.256-.832.384-1.28 78.816-169.856 245.28-283.84 414.976-283.84 169.76 0 336.192 114.08 414.752 283.68.096.32.16.608.256.832.064.288.16.576.256.864.16 1.28.32 2.528.48 3.168-.192.64-.288 1.28-.416 1.92z"/><path d="m512 352c-88.224 0-160 71.776-160 160s71.776 160 160 160 160-71.776 160-160-71.776-160-160-160zm0 256c-52.928 0-96-43.072-96-96s43.072-96 96-96 96 43.072 96 96-43.072 96-96 96z"/></svg>