<?xml version="1.0" standalone="no"?><!DOCTYPE svg PUBLIC "-//W3C//DTD SVG 1.1//EN" "http://www.w3.org/Graphics/SVG/1.1/DTD/svg11.dtd"><svg t="1536548528858" class="icon" style="" viewBox="0 0 1024 1024" version="1.1" xmlns="http://www.w3.org/2000/svg" p-id="4705" xmlns:xlink="http://www.w3.org/1999/xlink" width="200" height="200"><defs><style type="text/css"></style></defs><path d="M768 383.296l-62.976 0L705.024 285.76C705.024 163.52 604.16 64 480.32 64c-123.84 0-224.64 99.52-224.64 221.76l0 97.536L192 383.296c-70.656 0-128 57.344-128 128l0 320c0 70.656 57.344 128 128 128l576 0c70.656 0 128-57.344 128-128l0-320C896 440.64 838.656 383.296 768 383.296zM319.872 285.76c0-87.296 72-158.4 160.448-158.4 88.512 0 160.512 71.04 160.512 158.4l0 97.536L319.872 383.296 319.872 285.76zM832 831.296c0 35.392-28.608 64-64 64L192 895.296c-35.392 0-64-28.608-64-64l0-320c0-35.392 28.608-64 64-64l576 0c35.392 0 64 28.608 64 64L832 831.296zM480 511.296c-52.992 0-96 28.608-96 64 0 27.84 26.816 51.264 64 60.096l0 99.904c0 17.664 14.336 32 32 32s32-14.336 32-32L512 635.392c37.184-8.832 64-32.256 64-60.096C576 539.968 532.992 511.296 480 511.296z" p-id="4706"></path></svg>