<?xml version="1.0" standalone="no"?><!DOCTYPE svg PUBLIC "-//W3C//DTD SVG 1.1//EN" "http://www.w3.org/Graphics/SVG/1.1/DTD/svg11.dtd"><svg t="1536289933436" class="icon" style="" viewBox="0 0 1024 1024" version="1.1" xmlns="http://www.w3.org/2000/svg" p-id="2525" xmlns:xlink="http://www.w3.org/1999/xlink" width="200" height="200"><defs><style type="text/css"></style></defs><path d="M512 512m-512 0a512 512 0 1 0 1024 0 512 512 0 1 0-1024 0Z" fill="#D4237A" p-id="2526"></path><path d="M627.952941 299.670588c0-46.682353-28.611765-88.847059-70.77647-106.917647s-93.364706-7.529412-126.494118 25.6-43.670588 82.823529-25.6 126.494118 60.235294 70.776471 106.917647 70.77647c63.247059 0 114.447059-51.2 115.952941-115.952941z m-76.8 115.952941h-76.8c-27.105882 0-52.705882 6.023529-76.8 19.576471 40.658824 10.541176 79.811765 27.105882 115.952941 48.188235 36.141176-21.082353 75.294118-37.647059 115.952942-48.188235-25.6-13.552941-52.705882-19.576471-78.305883-19.576471z m251.482353 115.952942c-21.082353 0-39.152941 16.564706-39.152941 39.152941V647.529412c1.505882 21.082353 18.070588 36.141176 39.152941 36.141176s37.647059-16.564706 39.152941-36.141176v-76.8c-1.505882-22.588235-18.070588-39.152941-39.152941-39.152941z m-542.117647 115.952941v-76.8c-1.505882-21.082353-18.070588-36.141176-39.152941-36.141177s-37.647059 16.564706-39.152941 36.141177V647.529412c1.505882 21.082353 18.070588 36.141176 39.152941 36.141176s37.647059-16.564706 39.152941-36.141176z m-39.152941-174.682353v19.57647c42.164706 0 76.8 34.635294 76.8 76.8V647.529412c0 42.164706-34.635294 76.8-76.8 76.8v19.57647c0 4.517647 1.505882 10.541176 6.023529 13.552942 3.011765 3.011765 9.035294 6.023529 13.552941 6.023529 99.388235 0 177.694118 31.623529 251.482353 78.305882V516.517647c-75.294118-42.164706-155.105882-61.741176-251.482353-61.741176-4.517647 0-10.541176 1.505882-13.552941 6.023529s-6.023529 7.529412-6.023529 12.047059zM725.835294 647.529412v-76.8c0-42.164706 34.635294-76.8 76.8-76.8v-19.576471c0-4.517647-1.505882-10.541176-6.023529-13.552941s-9.035294-6.023529-13.552941-6.023529c-97.882353 0-177.694118 19.576471-251.482353 61.741176v325.270588c73.788235-46.682353 153.6-78.305882 251.482353-78.305882 10.541176 0 19.576471-9.035294 19.57647-19.576471v-19.57647c-43.670588-1.505882-76.8-34.635294-76.8-76.8z" fill="#FFFFFF" p-id="2527"></path></svg>