<?xml version="1.0" standalone="no"?><!DOCTYPE svg PUBLIC "-//W3C//DTD SVG 1.1//EN" "http://www.w3.org/Graphics/SVG/1.1/DTD/svg11.dtd"><svg t="1536289927787" class="icon" style="" viewBox="0 0 1024 1024" version="1.1" xmlns="http://www.w3.org/2000/svg" p-id="2408" xmlns:xlink="http://www.w3.org/1999/xlink" width="200" height="200"><defs><style type="text/css"></style></defs><path d="M512 512m-512 0a512 512 0 1 0 1024 0 512 512 0 1 0-1024 0Z" fill="#9254DE" p-id="2409"></path><path d="M582.776471 475.858824c46.682353 0 91.858824-25.6 114.447058-66.258824s24.094118-91.858824 0-132.517647c-24.094118-40.658824-67.764706-66.258824-114.447058-66.258824-73.788235 0-132.517647 58.729412-132.517647 132.517647s58.729412 132.517647 132.517647 132.517648z m0-221.364706c49.694118 0 88.847059 39.152941 88.847058 88.847058s-39.152941 88.847059-88.847058 88.847059-88.847059-39.152941-88.847059-88.847059 40.658824-88.847059 88.847059-88.847058z m-132.517647 221.364706c4.517647 0 10.541176-1.505882 15.058823-1.505883-15.058824-13.552941-27.105882-28.611765-36.141176-45.17647-39.152941-9.035294-67.764706-45.176471-67.764706-85.835295s28.611765-76.8 67.764706-85.835294c9.035294-16.564706 21.082353-31.623529 36.141176-45.17647-4.517647 0-10.541176-1.505882-15.058823-1.505883-46.682353 0-91.858824 25.6-114.447059 66.258824s-24.094118 91.858824 0 132.517647 66.258824 66.258824 114.447059 66.258824z m-25.6 46.682352c-109.929412 12.047059-195.764706 105.411765-195.764706 218.352942 0 12.047059 10.541176 22.588235 22.588235 22.588235s22.588235-10.541176 22.588235-22.588235c0-64.752941 34.635294-120.470588 85.835294-150.588236 16.564706-27.105882 39.152941-49.694118 64.752942-67.764706z m274.070588 85.835295h60.235294c-40.658824-52.705882-103.905882-88.847059-176.188235-88.847059-121.976471 0-221.364706 99.388235-221.364706 221.364706 0 12.047059 10.541176 22.588235 22.588235 22.588235S406.588235 752.941176 406.588235 740.894118c0-97.882353 79.811765-177.694118 177.694118-177.694118 43.670588 0 82.823529 18.070588 114.447059 45.176471z m146.070588 76.8c-4.517647-6.023529-10.541176-10.541176-18.070588-10.541177h-1.505883-64.752941c-12.047059 0-22.588235 10.541176-22.588235 22.588235s10.541176 22.588235 22.588235 22.588236h10.541177l-55.717647 55.717647-93.364706-93.364706c-4.517647-4.517647-10.541176-7.529412-18.070588-6.02353-6.023529 0-12.047059 1.505882-16.564706 6.02353l-108.42353 108.423529c-9.035294 9.035294-7.529412 22.588235 0 31.62353s22.588235 9.035294 31.62353 0l93.364706-93.364706 93.364705 93.364706c4.517647 4.517647 10.541176 7.529412 18.070589 6.023529 6.023529 0 12.047059-1.505882 18.070588-6.023529l70.77647-70.776471v12.047059c0 12.047059 10.541176 22.588235 22.588236 22.588235s22.588235-10.541176 22.588235-22.588235v-66.258824c-1.505882-4.517647-3.011765-9.035294-4.517647-12.047058z" fill="#FFFFFF" p-id="2410"></path></svg>