<?xml version="1.0" standalone="no"?><!DOCTYPE svg PUBLIC "-//W3C//DTD SVG 1.1//EN" "http://www.w3.org/Graphics/SVG/1.1/DTD/svg11.dtd"><svg t="1536289899747" class="icon" style="" viewBox="0 0 1024 1024" version="1.1" xmlns="http://www.w3.org/2000/svg" p-id="2059" xmlns:xlink="http://www.w3.org/1999/xlink" width="200" height="200"><defs><style type="text/css"></style></defs><path d="M1011.952941 667.105882l-105.411765-81.317647c-9.035294-7.529412-13.552941-18.070588-12.047058-28.611764 3.011765-15.058824 3.011765-30.117647 3.011764-45.176471s-1.505882-30.117647-3.011764-45.176471c-1.505882-10.541176 3.011765-21.082353 12.047058-28.611764l105.411765-81.317647c12.047059-9.035294 15.058824-27.105882 7.529412-39.152942l-75.294118-123.482352c-9.035294-12.047059-25.6-18.070588-40.658823-13.552942l-128 45.176471c-10.541176 3.011765-22.588235 3.011765-31.62353-4.517647-25.6-18.070588-52.705882-34.635294-84.329411-45.176471-10.541176-4.517647-18.070588-13.552941-19.576471-24.094117L617.411765 25.6c0-15.058824-13.552941-25.6-30.117647-25.6H436.705882c-16.564706 0-30.117647 10.541176-31.623529 25.6l-22.588235 126.494118c-1.505882 10.541176-9.035294 19.576471-19.576471 24.094117-30.117647 12.047059-57.223529 27.105882-82.823529 45.176471-9.035294 6.023529-21.082353 7.529412-31.62353 4.517647L120.470588 180.705882c-15.058824-6.023529-31.623529 0-39.152941 13.552942l-75.294118 123.482352c-7.529412 13.552941-4.517647 30.117647 7.529412 39.152942l105.411765 81.317647c9.035294 7.529412 13.552941 18.070588 12.047059 28.611764-3.011765 15.058824-3.011765 30.117647-3.011765 45.176471s1.505882 30.117647 3.011765 45.176471c1.505882 10.541176-3.011765 21.082353-12.047059 28.611764l-105.411765 81.317647c-12.047059 9.035294-15.058824 27.105882-7.529412 39.152942l75.294118 123.482352c7.529412 13.552941 24.094118 19.576471 39.152941 13.552942l128-45.176471c10.541176-3.011765 22.588235-3.011765 31.62353 4.517647 25.6 18.070588 52.705882 34.635294 82.823529 45.176471 10.541176 4.517647 18.070588 13.552941 19.576471 24.094117l22.588235 126.494118c3.011765 15.058824 16.564706 25.6 31.623529 25.6h150.588236c16.564706 0 30.117647-10.541176 31.623529-25.6l22.588235-126.494118c1.505882-10.541176 9.035294-19.576471 19.576471-24.094117 30.117647-12.047059 57.223529-27.105882 82.823529-45.176471 9.035294-6.023529 21.082353-7.529412 31.62353-4.517647l128 45.176471c15.058824 6.023529 31.623529 0 39.152941-13.552942l75.294118-123.482352c9.035294-12.047059 6.023529-28.611765-6.02353-39.152942zM512 691.2c-105.411765 0-189.741176-81.317647-189.741176-179.2 0-99.388235 85.835294-180.705882 189.741176-180.705882 105.411765 0 189.741176 81.317647 189.741176 180.705882S617.411765 691.2 512 691.2z" fill="#F38484" p-id="2060"></path></svg>