<?xml version="1.0" standalone="no"?><!DOCTYPE svg PUBLIC "-//W3C//DTD SVG 1.1//EN" "http://www.w3.org/Graphics/SVG/1.1/DTD/svg11.dtd"><svg t="1536289909341" class="icon" style="" viewBox="0 0 1024 1024" version="1.1" xmlns="http://www.w3.org/2000/svg" p-id="2175" xmlns:xlink="http://www.w3.org/1999/xlink" width="200" height="200"><defs><style type="text/css"></style></defs><path d="M7.529412 512a512 496.941176 90 1 0 993.882353 0 512 496.941176 90 1 0-993.882353 0Z" fill="#FFA508" p-id="2176"></path><path d="M750.953412 303.751529h-504.470588c-10.541176 0-18.070588 9.035294-18.070589 21.082353v316.235294c0 10.541176 9.035294 21.082353 19.576471 21.082353h230.4v70.776471h-105.411765c-6.023529 0-9.035294 4.517647-9.035294 10.541176v30.117648c0 3.011765 1.505882 4.517647 4.517647 4.517647h262.02353c3.011765 0 4.517647-3.011765 4.517647-4.517647v-30.117648c0-6.023529-4.517647-10.541176-9.035295-10.541176h-103.905882v-70.776471h230.4c10.541176 0 19.576471-9.035294 19.576471-21.082353v-316.235294c-1.505882-12.047059-10.541176-21.082353-21.082353-21.082353z m-24.094118 311.717647h-456.282353v-265.035294h454.776471l1.505882 265.035294z" fill="#FFFFFF" p-id="2177"></path></svg>